<svg xmlns="http://www.w3.org/2000/svg" viewBox="0 0 1200 700">
  <defs>
    <linearGradient id="metal" x1="0" x2="1" y1="0" y2="0">
      <stop offset="0" stop-color="#d9d9da"/>
      <stop offset="0.5" stop-color="#9ea2a7"/>
      <stop offset="1" stop-color="#c6c9cc"/>
    </linearGradient>
    <linearGradient id="yellow" x1="0" x2="0" y1="0" y2="1">
      <stop offset="0" stop-color="#ffd34e"/>
      <stop offset="1" stop-color="#d79a00"/>
    </linearGradient>
    <linearGradient id="rubber" x1="0" x2="0" y1="0" y2="1">
      <stop offset="0" stop-color="#5d5d5d"/>
      <stop offset="1" stop-color="#2a2a2a"/>
    </linearGradient>
    <filter id="shadow" x="-20%" y="-20%" width="140%" height="140%">
      <feDropShadow dx="0" dy="6" stdDeviation="8" flood-color="#000" flood-opacity="0.35"/>
    </filter>
  </defs>

  <rect width="1200" height="700" fill="#f2efe9"/>
  <rect y="560" width="1200" height="140" fill="#caa37b"/>
  <rect y="540" width="1200" height="40" fill="#b4885f"/>

  <!-- Tracks -->
  <g filter="url(#shadow)">
    <rect x="220" y="500" width="320" height="60" rx="10" fill="url(#rubber)"/>
    <rect x="660" y="500" width="320" height="60" rx="10" fill="url(#rubber)"/>
    <g fill="#3a3a3a">
      <rect x="240" y="540" width="280" height="18" rx="9"/>
      <rect x="680" y="540" width="280" height="18" rx="9"/>
    </g>
  </g>

  <!-- Body -->
  <g filter="url(#shadow)">
    <rect x="300" y="350" width="600" height="120" rx="12" fill="url(#yellow)"/>
    <rect x="340" y="280" width="240" height="120" rx="10" fill="url(#yellow)"/>
    <rect x="620" y="280" width="260" height="120" rx="10" fill="url(#yellow)"/>
    <rect x="370" y="260" width="180" height="10" fill="#303030" opacity="0.4"/>
    <rect x="650" y="260" width="200" height="10" fill="#303030" opacity="0.4"/>

    <!-- Cabin -->
    <rect x="635" y="250" width="210" height="140" rx="8" fill="#4b5f70"/>
    <rect x="645" y="260" width="190" height="120" rx="6" fill="#8fb3c6" opacity="0.9"/>
    <rect x="740" y="250" width="10" height="140" fill="#3e4e5b"/>
  </g>

  <!-- Blade arms -->
  <g fill="url(#yellow)" filter="url(#shadow)">
    <rect x="380" y="390" width="30" height="140" rx="10"/>
    <rect x="800" y="390" width="30" height="140" rx="10"/>
    <rect x="395" y="470" width="420" height="24" rx="12"/>
  </g>

  <!-- Blade -->
  <g filter="url(#shadow)">
    <path d="M240,520 C260,520 320,520 360,500 L880,500 C940,520 1000,520 1020,520 L1020,560 C1000,560 940,560 880,540 L360,540 C320,560 260,560 240,560 Z"
          fill="url(#metal)"/>
    <!-- Bolt holes -->
    <g fill="#808a90">
      <!-- 10 bolts -->
      <circle cx="320" cy="552" r="5"/>
      <circle cx="380" cy="552" r="5"/>
      <circle cx="440" cy="552" r="5"/>
      <circle cx="500" cy="552" r="5"/>
      <circle cx="560" cy="552" r="5"/>
      <circle cx="620" cy="552" r="5"/>
      <circle cx="680" cy="552" r="5"/>
      <circle cx="740" cy="552" r="5"/>
      <circle cx="800" cy="552" r="5"/>
      <circle cx="860" cy="552" r="5"/>
    </g>
  </g>
</svg>