<svg xmlns="http://www.w3.org/2000/svg" viewBox="0 0 1000 700">
  <defs>
    <linearGradient id="panel" x1="0" x2="0" y1="0" y2="1">
      <stop offset="0" stop-color="#5d666f"/>
      <stop offset="1" stop-color="#3b4249"/>
    </linearGradient>
    <filter id="shadow"><feDropShadow dx="0" dy="5" stdDeviation="8" flood-color="#000" flood-opacity="0.35"/></filter>
  </defs>

  <rect width="1000" height="700" fill="#e9eef2"/>
  <g transform="translate(140,120)" filter="url(#shadow)">
    <rect x="0" y="0" width="720" height="460" rx="16" fill="url(#panel)"/>
    <!-- Gauges -->
    <g transform="translate(80,80)">
      <circle cx="0" cy="0" r="70" fill="#273138"/>
      <circle cx="0" cy="0" r="58" fill="#10161a"/>
      <path d="M-50,0 A50,50 0 1,1 50,0" fill="none" stroke="#5fd4ff" stroke-width="6"/>
      <line x1="0" y1="0" x2="40" y2="-10" stroke="#ffb84d" stroke-width="6" stroke-linecap="round"/>
    </g>
    <g transform="translate(260,80)">
      <circle cx="0" cy="0" r="70" fill="#273138"/>
      <circle cx="0" cy="0" r="58" fill="#10161a"/>
      <path d="M-50,0 A50,50 0 1,1 50,0" fill="none" stroke="#8df18d" stroke-width="6"/>
      <line x1="0" y1="0" x2="-30" y2="-30" stroke="#ff6e6e" stroke-width="6" stroke-linecap="round"/>
    </g>
    <!-- Buttons -->
    <g transform="translate(80,260)">
      <rect x="0" y="0" width="560" height="40" rx="8" fill="#1d2328"/>
      <circle cx="30" cy="20" r="10" fill="#62e26d"/>
      <circle cx="70" cy="20" r="10" fill="#ffd34e"/>
      <circle cx="110" cy="20" r="10" fill="#ff6b6b"/>
    </g>
    <!-- Wiring -->
    <path d="M660,60 C720,100 720,180 660,220 C600,260 600,340 660,380" fill="none" stroke="#c7ced6" stroke-width="6"/>
  </g>
</svg>