<svg xmlns="http://www.w3.org/2000/svg" viewBox="0 0 1200 700">
  <defs>
    <linearGradient id="body" x1="0" x2="0" y1="0" y2="1">
      <stop offset="0" stop-color="#ffcf4b"/>
      <stop offset="1" stop-color="#d79c00"/>
    </linearGradient>
    <linearGradient id="metal2" x1="0" x2="0" y1="0" y2="1">
      <stop offset="0" stop-color="#cfd5da"/>
      <stop offset="1" stop-color="#8c939a"/>
    </linearGradient>
    <filter id="shadow"><feDropShadow dx="0" dy="6" stdDeviation="8" flood-color="#000" flood-opacity="0.35"/></filter>
  </defs>

  <rect width="1200" height="700" fill="#eef2f5"/>
  <rect y="560" width="1200" height="140" fill="#dbc3a9"/>

  <!-- Tracks -->
  <g filter="url(#shadow)">
    <rect x="360" y="520" width="480" height="50" rx="12" fill="#2e3338"/>
    <rect x="380" y="540" width="440" height="24" rx="12" fill="#181c20"/>
  </g>

  <!-- House -->
  <g filter="url(#shadow)">
    <rect x="480" y="380" width="260" height="110" rx="12" fill="url(#body)"/>
    <rect x="520" y="330" width="170" height="80" rx="10" fill="#4b5f70"/>
    <rect x="530" y="338" width="150" height="66" rx="8" fill="#8eb2c6" opacity="0.9"/>
  </g>

  <!-- Boom, arm, bucket -->
  <g filter="url(#shadow)">
    <path d="M600,400 C720,340 820,320 900,330 L900,360 C810,352 720,372 630,420 Z" fill="url(#body)"/>
    <path d="M900,330 C980,328 1040,340 1080,380 L1050,400 C1010,366 960,356 900,360 Z" fill="url(#body)"/>
    <path d="M1080,380 c40,40 40,70 10,110 l-40,-10 c18,-26 18,-44 0,-64 Z" fill="#30363b"/>
    <path d="M1050,480 c-4,10 -2,18 4,22 c22,14 84,10 108,-20 c10,-12 12,-26 2,-38 c-18,22 -54,40 -114,36 z"
          fill="#3e454b"/>
  </g>
</svg>