<svg xmlns="http://www.w3.org/2000/svg" viewBox="0 0 1200 700">
  <defs>
    <linearGradient id="ylw" x1="0" x2="0" y1="0" y2="1">
      <stop offset="0" stop-color="#ffd24d"/>
      <stop offset="1" stop-color="#cc9700"/>
    </linearGradient>
    <filter id="shadow"><feDropShadow dx="0" dy="6" stdDeviation="8" flood-color="#000" flood-opacity="0.35"/></filter>
  </defs>

  <rect width="1200" height="700" fill="#f3f6f9"/>
  <rect y="560" width="1200" height="140" fill="#d5c3ad"/>

  <!-- Body -->
  <g filter="url(#shadow)">
    <rect x="360" y="360" width="320" height="120" rx="12" fill="url(#ylw)"/>
    <rect x="430" y="300" width="160" height="90" rx="10" fill="#4a5e6f"/>
    <rect x="440" y="308" width="140" height="74" rx="8" fill="#97b7c7" opacity="0.9"/>
  </g>

  <!-- Wheels -->
  <g filter="url(#shadow)">
    <circle cx="410" cy="520" r="64" fill="#2e3439"/>
    <circle cx="410" cy="520" r="34" fill="#5c666d"/>
    <circle cx="660" cy="520" r="84" fill="#2e3439"/>
    <circle cx="660" cy="520" r="44" fill="#5c666d"/>
  </g>

  <!-- Arm and bucket -->
  <g filter="url(#shadow)">
    <rect x="640" y="420" width="220" height="24" rx="12" fill="url(#ylw)"/>
    <rect x="820" y="430" width="160" height="18" rx="9" fill="url(#ylw)"/>
    <path d="M980,430 c30,30 22,56 -10,82 h-120 c20,-22 36,-46 50,-82 z" fill="#3a4147"/>
  </g>
</svg>